<svg width="42" height="43" viewBox="0 0 42 43" fill="none" xmlns="http://www.w3.org/2000/svg">
<rect y="0.830078" width="42" height="42" rx="8" fill="#104651"/>
<path d="M16.8188 27.0789C17.0245 27.2847 17.3742 27.2847 17.6005 27.0789L25.7878 18.8916C25.9936 18.6858 25.9936 18.3361 25.7878 18.1098L24.6975 17.0196C24.4918 16.8138 24.1421 16.8138 23.9158 17.0196L15.7491 25.1863C15.5433 25.3921 15.5433 25.7418 15.7491 25.968L16.8188 27.0789Z" fill="white"/>
<path d="M24.7377 24.5915L28.1114 21.2178C28.3171 21.012 28.3171 20.6623 28.1114 20.4361L27.1445 19.4692C26.9388 19.2634 26.5891 19.2634 26.3628 19.4692L18.0932 27.7388C17.9081 27.9239 17.8874 28.1914 18.011 28.3972L18.4019 29.076C18.299 29.1789 18.155 29.2406 18.011 29.2611L15.3367 29.7137C14.9458 28.6851 14.1436 27.8829 13.115 27.492L13.5676 24.8177C13.5881 24.6736 13.6498 24.5297 13.7527 24.4268L14.4315 24.8177C14.6578 24.9411 14.9253 24.8999 15.0899 24.7355L23.3595 16.4659C23.5652 16.2601 23.5652 15.9104 23.3595 15.6842L22.3926 14.7173C22.1868 14.5115 21.8372 14.5115 21.6109 14.7173L12.8476 23.4806C12.5391 23.7891 12.3333 24.18 12.2716 24.6121L11.243 30.804C11.2018 31.0303 11.2842 31.2565 11.4281 31.4005V31.421H11.4487C11.5721 31.5444 11.7366 31.6061 11.9012 31.6061C11.9424 31.6061 11.9834 31.6061 12.0246 31.5856L18.2165 30.557C18.6486 30.4953 19.0393 30.2896 19.348 29.981L24.7377 24.5915Z" fill="white"/>
<path d="M30.7016 17.8436C29.6525 15.2517 27.5747 13.174 24.9828 12.1248C24.6536 11.9808 24.2627 12.0631 23.9954 12.3306L22.9463 13.3797C22.7405 13.5855 22.7405 13.9351 22.9463 14.1614L28.6651 19.8802C28.8709 20.086 29.2206 20.086 29.4468 19.8802L30.4959 18.8311C30.7427 18.5842 30.8455 18.1933 30.7016 17.8436Z" fill="white"/>
</svg>
