<svg width="23" height="23" viewBox="0 0 23 23" fill="none" xmlns="http://www.w3.org/2000/svg">
<path d="M22.0714 13.0225C22.5063 12.5664 22.749 11.9605 22.749 11.3303C22.749 10.7 22.5063 10.0941 22.0714 9.63802L21.5883 9.13049C21.381 8.91339 21.2986 8.60578 21.3698 8.31415L21.5339 7.63531V7.63548C21.6833 7.02278 21.5905 6.37599 21.2752 5.82991C20.9599 5.28382 20.4461 4.88032 19.841 4.70334L19.1709 4.50623C18.8821 4.42241 18.6562 4.19689 18.5722 3.90825L18.3758 3.23817C18.1994 2.6321 17.7955 2.11758 17.2488 1.80211C16.702 1.48663 16.0545 1.39456 15.4415 1.5452L14.7626 1.70934C14.4708 1.78106 14.1626 1.69829 13.9456 1.49013L13.4388 1.0077C12.9829 0.572796 12.3768 0.330078 11.7468 0.330078C11.1165 0.330078 10.5105 0.572782 10.0545 1.0077L9.54702 1.49085C9.32939 1.69708 9.02218 1.77933 8.73069 1.70936L8.05658 1.54521C7.4437 1.3958 6.79661 1.4884 6.25018 1.8037C5.70374 2.11901 5.2997 2.63284 5.12224 3.23819L4.92514 3.90827C4.84131 4.1971 4.6158 4.42298 4.32716 4.50698L3.65709 4.70339C3.0514 4.88033 2.53724 5.28422 2.22173 5.8308C1.90643 6.3776 1.81401 7.0247 1.96412 7.63777L2.12826 8.31661C2.19928 8.60842 2.11669 8.91652 1.90906 9.13363L1.42664 9.64043C0.991737 10.0964 0.749023 10.7024 0.749023 11.3325C0.749023 11.9628 0.991723 12.5688 1.42664 13.0248L1.90977 13.5323C2.11705 13.7494 2.19947 14.0572 2.12828 14.3487L1.96414 15.0275C1.81543 15.6399 1.90855 16.2859 2.22367 16.8315C2.53898 17.377 3.05226 17.7802 3.6571 17.9572L4.32718 18.1543C4.616 18.2381 4.84187 18.4636 4.92587 18.7523L5.12297 19.4232L5.12315 19.423C5.29957 20.0289 5.70326 20.5432 6.24987 20.8586C6.79649 21.1741 7.44375 21.266 8.05663 21.1153L8.73546 20.9512C9.02726 20.8803 9.33518 20.9629 9.55246 21.1704L10.0593 21.6528C10.5154 22.0875 11.1212 22.3301 11.7513 22.3301C12.3816 22.3301 12.9874 22.0875 13.4436 21.6528L13.9511 21.1697C14.168 20.962 14.4759 20.8798 14.7674 20.9512L15.4462 21.1153C16.0586 21.2638 16.7044 21.1707 17.25 20.8554C17.7956 20.5401 18.1987 20.027 18.3758 19.4223L18.573 18.7522C18.6568 18.4634 18.8823 18.2375 19.1709 18.1535L19.8419 17.9564L19.8417 17.9562C20.4472 17.7791 20.961 17.3753 21.2761 16.829C21.5914 16.2826 21.6837 15.6355 21.5339 15.0228L21.3698 14.3439C21.2988 14.0521 21.3814 13.744 21.589 13.5269L22.0714 13.0225ZM16.8558 9.1603L11.153 14.6301C11.0066 14.7706 10.8117 14.849 10.6089 14.849C10.4061 14.849 10.2111 14.7706 10.0649 14.6301L6.64271 11.3501C6.44016 11.1558 6.35669 10.8681 6.42385 10.5955C6.49084 10.323 6.6983 10.1069 6.96782 10.0287C7.23753 9.95051 7.52826 10.0221 7.73082 10.2164L10.6094 12.9803L15.7671 8.03076C15.9718 7.85347 16.2532 7.79385 16.5123 7.87346C16.7711 7.9529 16.9709 8.16001 17.0407 8.42166C17.1106 8.6833 17.0408 8.96249 16.856 9.16047L16.8558 9.1603Z" fill="#5A9B48"/>
</svg>
