<svg width="30" height="19" viewBox="0 0 30 19" fill="none" xmlns="http://www.w3.org/2000/svg">
<path opacity="0.5" d="M2.25008 0C1.95529 0 1.67566 0.0604049 1.41799 0.159804L14.1444 10.9954C14.6945 11.4636 15.2805 11.4641 15.8319 10.9954L28.5817 0.159804C28.3244 0.0601517 28.0445 0 27.7497 0H2.24988H2.25008ZM0.0235414 1.88402C0.00915493 1.98367 0 2.08842 0 2.19216V16.8076C0 18.022 1.00338 19 2.25011 19H27.7499C28.9963 19 30 18.0223 30 16.8076V2.19216C30 2.08843 29.9908 1.98368 29.9765 1.88376L17.3083 12.6515C15.9865 13.7748 13.9894 13.7765 12.6676 12.6515L0.0235332 1.88376L0.0235414 1.88402Z" fill="#104651"/>
</svg>
